<?xml version="1.0" encoding="UTF-8" standalone="no"?>
<!-- Created with Inkscape (http://www.inkscape.org/) -->

<svg
   xmlns:dc="http://purl.org/dc/elements/1.1/"
   xmlns:cc="http://creativecommons.org/ns#"
   xmlns:rdf="http://www.w3.org/1999/02/22-rdf-syntax-ns#"
   xmlns:svg="http://www.w3.org/2000/svg"
   xmlns="http://www.w3.org/2000/svg"
   xmlns:sodipodi="http://sodipodi.sourceforge.net/DTD/sodipodi-0.dtd"
   xmlns:inkscape="http://www.inkscape.org/namespaces/inkscape"
   width="4in"
   height="4in"
   viewBox="0 0 101.6 101.6"
   version="1.1"
   id="svg7159"
   inkscape:version="0.92.2 (unknown)"
   sodipodi:docname="mining-king-head.svg">
  <defs
     id="defs7153" />
  <sodipodi:namedview
     id="base"
     pagecolor="#ffffff"
     bordercolor="#666666"
     borderopacity="1.0"
     inkscape:pageopacity="0.0"
     inkscape:pageshadow="2"
     inkscape:zoom="0.45147111"
     inkscape:cx="985.99657"
     inkscape:cy="596.25637"
     inkscape:document-units="mm"
     inkscape:current-layer="layer1"
     showgrid="false"
     units="in"
     inkscape:window-width="1855"
     inkscape:window-height="1056"
     inkscape:window-x="1985"
     inkscape:window-y="24"
     inkscape:window-maximized="1" />
  <metadata
     id="metadata7156">
    <rdf:RDF>
      <cc:Work
         rdf:about="">
        <dc:format>image/svg+xml</dc:format>
        <dc:type
           rdf:resource="http://purl.org/dc/dcmitype/StillImage" />
        <dc:title></dc:title>
      </cc:Work>
    </rdf:RDF>
  </metadata>
  <g
     inkscape:label="Layer 1"
     inkscape:groupmode="layer"
     id="layer1"
     transform="translate(0,-195.4)">
    <path
       style="display:inline;fill:#000000;stroke-width:0.02484059"
       d="m 22.975599,284.70181 c -0.664598,-0.50195 -3.125285,-2.94508 -5.275548,-5.23787 -2.005749,-2.13874 -3.953025,-4.31743 -5.00651,-5.60144 -0.417351,-0.5087 -0.808878,-1.01923 -0.800226,-1.0435 0.0038,-0.0119 0.152665,-0.17475 0.329803,-0.36187 0.710666,-0.75058 1.729791,-1.64669 2.502564,-2.20053 0.334845,-0.23998 0.510586,-0.33198 0.594074,-0.31104 0.194663,0.049 1.479708,1.3508 3.46157,3.50706 0.339045,0.3689 0.624236,0.67385 0.633738,0.67769 0.0093,0.005 0.290133,-0.23567 0.623564,-0.53226 0.776622,-0.69075 3.41078,-3.01847 4.915271,-4.34347 0.745865,-0.65689 1.442785,-1.27148 2.957651,-2.60827 0.510902,-0.45086 1.030553,-0.90917 1.15477,-1.01846 0.124249,-0.10926 0.649336,-0.57319 1.166926,-1.03089 1.803003,-1.59432 2.691797,-2.37623 4.061549,-3.57311 0.758246,-0.66258 1.401861,-1.22523 1.430207,-1.25041 0.05061,-0.045 0.055,-0.0434 0.254205,0.0849 0.111521,0.0719 0.650841,0.39894 1.19861,0.72685 l 0.99598,0.59615 -0.01401,0.63344 c -0.008,0.34839 -0.02188,0.99673 -0.03127,1.44077 l -0.01725,0.80732 -1.575206,1.44075 c -0.866344,0.79242 -1.823312,1.68108 -2.126596,1.97482 -0.726607,0.70374 -1.200056,1.11192 -4.772165,4.11412 -2.580153,2.1685 -3.241705,2.72597 -4.343043,3.65963 -0.65358,0.55407 -1.322756,1.12135 -1.487079,1.26061 -0.777074,0.65862 -1.050968,0.72566 -1.860727,0.45551 -0.504194,-0.16823 -0.788896,-0.35829 -1.375968,-0.9186 -0.439571,-0.41952 -0.598509,-0.54521 -0.712894,-0.56378 -0.07479,-0.0119 -0.09454,-0.003 -0.176281,0.0882 -0.110591,0.1224 -0.120278,0.22613 -0.0366,0.39352 0.138728,0.27779 0.789765,0.95243 1.200423,1.24395 0.457899,0.32508 0.790995,0.47156 1.425996,0.62721 0.558145,0.1368 0.62981,0.17785 1.057938,0.60571 0.647096,0.64672 2.443256,2.68219 2.863498,3.245 0.05703,0.0764 0.103697,0.15945 0.103697,0.18461 0,0.0863 -2.03327,2.07033 -2.608247,2.54517 -0.190585,0.15737 -0.514442,0.37305 -0.560208,0.37305 -0.01763,0 -0.08619,-0.0408 -0.15207,-0.0906 z m 61.597397,-1.39826 c -0.04158,-0.0777 -0.0296,-0.40107 0.02271,-0.60497 0.166205,-0.64982 0.797871,-1.50105 1.455333,-1.9612 0.255979,-0.17917 0.29677,-0.22344 0.263295,-0.286 -0.03966,-0.074 -0.223259,-0.23072 -0.315674,-0.26933 -0.07505,-0.0312 -0.09707,-0.0296 -0.220458,0.0164 -0.07544,0.0282 -0.205673,0.0971 -0.289474,0.15306 -0.212746,0.14206 -0.575309,0.49249 -0.743647,0.71873 -0.297168,0.39943 -0.685493,1.14104 -0.759069,1.44963 -0.04728,0.19856 -0.06476,0.2413 -0.103042,0.25411 -0.04932,0.0164 -0.884043,-0.73256 -4.699714,-4.21668 -1.249361,-1.14079 -2.418595,-2.20832 -2.598241,-2.37226 -1.560248,-1.42371 -2.520419,-2.2982 -4.308832,-3.92449 -2.391662,-2.17483 -3.066053,-2.7924 -3.688171,-3.3775 -0.851005,-0.80037 -1.774071,-1.68224 -1.781626,-1.70212 -0.004,-0.0106 -0.0578,-0.0617 -0.119336,-0.11284 -0.06151,-0.0511 -0.813213,-0.75841 -1.670521,-1.57177 l -1.558765,-1.47886 v -1.42438 -1.42439 l 1.024686,-0.51117 c 0.563563,-0.28114 1.049236,-0.534 1.079229,-0.5619 l 0.05449,-0.0508 0.131671,0.0963 c 0.299168,0.21857 1.338155,1.10465 2.951165,2.51684 3.575158,3.13005 5.637724,4.94473 6.819876,6.00023 0.260217,0.23231 0.595555,0.53002 0.745208,0.66156 3.37008,2.96177 4.20248,3.69623 6.358058,5.61004 3.291062,2.92189 4.465758,3.98898 5.570101,5.05997 l 0.328724,0.3188 -0.154824,0.31262 c -0.08514,0.17194 -0.221042,0.4011 -0.301897,0.50923 -0.437134,0.58455 -1.185422,1.31304 -1.726347,1.68073 -0.436347,0.29656 -1.148141,0.54039 -1.577536,0.54039 -0.134385,0 -0.165967,-0.008 -0.187353,-0.0481 z m -33.861194,-5.29622 c -0.142609,-0.26043 -0.422079,-0.8866 -1.400915,-3.1388 -1.089339,-2.50639 -2.048795,-4.69896 -2.179532,-4.98057 -0.129026,-0.27802 -0.147724,-0.29654 -0.842649,-0.83645 -1.642099,-1.27577 -4.093879,-3.06317 -4.202562,-3.06378 -0.05785,0 -1.936374,-1.44972 -2.207026,-1.70287 -0.08673,-0.0811 -0.348458,-0.29563 -0.581632,-0.47671 l -0.423946,-0.32925 -0.01662,-1.19846 c -0.01631,-1.1725 -0.05011,-1.86659 -0.09375,-1.92132 -0.01193,-0.0151 -0.10848,-0.073 -0.214365,-0.12863 -0.105949,-0.0556 -0.615216,-0.33402 -1.13181,-0.61849 l -0.939272,-0.5172 0.0012,-0.96878 c 0.0012,-0.53283 0.008,-1.82952 0.01687,-2.88151 l 0.01547,-1.91273 0.780606,-0.78436 0.780613,-0.78438 -0.0026,-0.41163 -0.0026,-0.4116 -1.008521,-1.22598 c -3.251011,-3.95197 -4.141084,-5.03429 -4.374213,-5.31884 -0.179857,-0.21955 -0.260674,-0.33803 -0.262666,-0.38503 -0.0012,-0.0398 -0.101566,-0.2221 -0.242319,-0.44174 -0.972295,-1.51789 -1.294435,-2.48856 -1.532946,-4.61913 -0.02759,-0.24591 -0.06267,-0.59245 -0.07811,-0.77005 -0.01541,-0.1776 -0.04047,-0.34861 -0.05544,-0.37997 -0.0208,-0.0433 -0.005,-0.3542 0.06631,-1.29171 0.122923,-1.62055 0.111378,-1.51652 0.165642,-1.50235 0.08143,0.0212 0.158914,-0.12956 0.396324,-0.77149 0.355422,-0.96107 0.916728,-1.97382 1.413443,-2.55029 0.735993,-0.85417 2.938995,-3.12991 3.029851,-3.12991 0.05912,0 0.302407,0.46969 0.945838,1.82578 0.471273,0.99326 0.574951,1.18438 0.828871,1.5277 0.491309,0.66433 1.921112,1.88788 2.206076,1.88788 0.117352,0 0.16431,-0.13049 0.540385,-1.50304 0.668296,-2.4389 1.784033,-4.90255 2.780532,-6.13968 0.47603,-0.59097 1.385007,-1.56252 1.661319,-1.77568 0.12598,-0.0972 0.132342,-0.0992 0.223808,-0.0693 0.167642,0.0549 1.176264,0.47544 2.814184,1.17336 1.957935,0.83425 2.298908,0.97808 2.753159,1.16128 l 0.356029,0.14358 0.165622,-0.0571 c 0.322097,-0.11073 1.499918,-0.59509 3.024083,-1.24348 1.306043,-0.55562 2.536997,-1.06757 2.722444,-1.1323 l 0.161617,-0.0564 0.115503,0.0676 c 0.354479,0.20774 1.596379,1.57048 2.040936,2.23951 1.037755,1.56181 2.084813,4.0967 2.64723,6.40887 0.05654,0.23226 0.136769,0.5046 0.178376,0.60519 l 0.07559,0.1829 0.09468,-0.0132 c 0.244743,-0.0329 0.967169,-0.58553 1.65745,-1.26806 0.353553,-0.34957 0.545805,-0.57298 0.668585,-0.77688 0.147806,-0.24544 0.481045,-0.90111 0.882652,-1.73663 0.394,-0.81966 0.678602,-1.35401 0.730411,-1.37127 0.04721,-0.0157 0.440095,0.35556 1.349669,1.27562 0.868311,0.87831 1.500778,1.54769 1.882397,1.99221 0.411598,0.47945 0.94334,1.48941 1.296999,2.46344 0.141715,0.39033 0.205084,0.53147 0.273266,0.6086 0.03079,0.0347 0.04906,0.11298 0.06098,0.26082 0.0094,0.11616 0.06697,0.71417 0.127837,1.32897 0.06078,0.61479 0.111126,1.14017 0.111516,1.1675 0,0.0273 -0.02238,0.26207 -0.05065,0.52165 -0.177064,1.6249 -0.333557,2.58226 -0.506298,3.09728 -0.263713,0.78636 -0.901655,1.9924 -1.311498,2.47943 -0.140709,0.16722 -5.454125,6.86545 -5.617736,7.08191 -0.0667,0.0882 -0.0675,0.0941 -0.0675,0.47107 v 0.38178 l 0.781127,0.78338 0.781127,0.78337 0.01695,2.85668 c 0.01053,1.71083 0.02642,2.86845 0.04039,2.88605 0.01569,0.0201 0.0053,0.041 -0.03443,0.0657 -0.180415,0.11377 -2.169323,1.26478 -2.216921,1.28286 -0.03139,0.0119 -0.06456,0.0412 -0.07385,0.0652 -0.03655,0.0948 -0.06263,0.69724 -0.07957,1.81847 l -0.01768,1.1751 -0.374627,0.28965 c -0.206044,0.15932 -0.4586,0.36899 -0.561232,0.46595 -0.190981,0.1804 -1.863157,1.42779 -2.605425,1.94356 -1.220004,0.84772 -4.146228,3.04436 -4.491465,3.37162 -0.155427,0.14733 0.05873,-0.32639 -2.499066,5.52702 -1.001155,2.29105 -1.287935,2.93992 -1.310453,2.96492 -0.01053,0.0119 -0.0337,-0.006 -0.05118,-0.0372 z m 0.394033,-18.60314 c 0.509787,-0.11299 1.901665,-0.46163 2.34076,-0.58642 l 0.385326,-0.10953 0.170318,-0.16693 c 0.362126,-0.3549 0.8854,-1.03395 0.8854,-1.14899 0,-0.0548 -0.32689,-0.69728 -0.700947,-1.37779 l -0.259416,-0.47197 h -3.186772 -3.186799 l -0.272876,0.4968 c -0.365063,0.66459 -0.689943,1.30156 -0.689943,1.35265 0,0.0817 0.448729,0.69332 0.815311,1.11133 0.07679,0.0875 0.173661,0.16933 0.224914,0.18983 0.233997,0.0936 2.899972,0.7817 3.040025,0.78464 0.05138,9.5e-4 0.246942,-0.0321 0.434699,-0.0735 z m -1.126742,-2.96498 c -0.02092,-0.0546 0.0053,-0.0839 0.165597,-0.18778 0.195908,-0.12665 0.532783,-0.2351 0.678907,-0.21862 0.173316,0.0194 0.710554,0.31723 0.710554,0.39371 0,0.0364 -0.150038,0.0266 -0.409877,-0.0269 -0.302147,-0.0622 -0.509806,-0.0629 -0.753484,-0.003 -0.314217,0.0778 -0.375481,0.0845 -0.391697,0.0422 z m -4.345418,-0.41993 c 0.05347,-0.0817 0.074,-0.20964 0.186601,-1.16554 0.109132,-0.92613 0.185714,-1.42852 0.236477,-1.55029 0.03076,-0.0737 0.04739,-0.0815 0.301926,-0.14192 0.342798,-0.0813 0.988029,-0.20267 1.933779,-0.36363 1.368002,-0.23279 2.231759,-0.3979 2.267254,-0.43341 0.04145,-0.0414 -0.320911,-0.3067 -0.901013,-0.65915 -0.163941,-0.0996 -0.408115,-0.25413 -0.542587,-0.34336 -0.235753,-0.15647 -0.24397,-0.16499 -0.230217,-0.2389 0.0079,-0.0422 0.1545,-0.35612 0.325889,-0.69766 0.171364,-0.34157 0.311292,-0.635 0.310954,-0.65208 0,-0.0171 -0.01463,-0.0311 -0.03171,-0.0312 -0.01715,0 -0.126104,-0.0106 -0.242215,-0.0237 -0.116152,-0.0131 -0.540893,-0.0466 -0.94391,-0.0747 -1.911777,-0.13342 -3.018126,-0.27208 -4.657017,-0.58366 -0.508149,-0.0965 -0.709199,-0.11389 -0.76691,-0.066 -0.05138,0.0426 -0.09853,0.25794 -0.0781,0.35599 0.04035,0.19306 0.197082,0.38096 0.585062,0.70108 0.270424,0.22314 0.52014,0.45808 0.52014,0.4894 0,0.0333 -0.0444,0.027 -0.291802,-0.0431 -0.133915,-0.0379 -0.255232,-0.0586 -0.290971,-0.0495 -0.11696,0.0293 -0.124913,0.11947 -0.125047,1.41838 0,1.18322 0,1.1932 0.05532,1.30413 0.153815,0.31063 2.212648,2.90634 2.305186,2.90634 0.01947,0 0.05233,-0.0259 0.07293,-0.0574 z m 10.589212,-0.25936 c 0.647172,-0.75591 1.962497,-2.47428 2.026324,-2.64721 0.02078,-0.0566 0.0292,-0.41995 0.0292,-1.27138 0,-1.266 -0.008,-1.35803 -0.116032,-1.39241 -0.02801,-0.01 -0.16702,0.0148 -0.309239,0.0524 -0.142138,0.0377 -0.266499,0.0605 -0.276364,0.0505 -0.02304,-0.0231 0.254708,-0.2881 0.602646,-0.57498 0.427508,-0.35246 0.535707,-0.53309 0.483693,-0.8074 -0.01351,-0.0716 -0.03727,-0.14529 -0.05244,-0.16372 -0.04946,-0.0597 -0.295267,-0.0371 -0.969314,0.0889 -1.889998,0.35327 -3.960868,0.56823 -5.982928,0.62102 -0.529021,0.0138 -0.778035,0.0294 -0.825229,0.0517 -0.114575,0.0541 -0.131281,0.15264 -0.129294,0.75741 0.0027,0.63461 0.03384,0.89617 0.116562,0.9655 0.06869,0.0574 0.233362,0.0465 0.688838,-0.0465 0.369978,-0.0753 0.624018,-0.1017 0.679899,-0.0704 0.03655,0.0204 0.03324,0.0307 -0.02741,0.0883 -0.03781,0.0359 -0.258707,0.18459 -0.490977,0.33042 -0.586795,0.36843 -0.795315,0.52888 -0.748334,0.57585 0.03164,0.0317 0.957338,0.20749 2.263607,0.42977 0.945737,0.16096 1.590989,0.28228 1.933762,0.36362 0.254662,0.0605 0.271221,0.0682 0.301949,0.14192 0.04959,0.11895 0.127434,0.62089 0.22398,1.44396 0.138094,1.17698 0.169457,1.32923 0.27377,1.32923 0.01775,0 0.154242,-0.14252 0.303366,-0.31673 z m -4.514843,-10.98597 c 1.404014,-0.0541 1.864302,-0.092 2.57916,-0.21266 1.845672,-0.31137 3.635078,-0.85596 4.907777,-1.49364 0.329254,-0.16497 0.755067,-0.4107 0.902966,-0.52108 l 0.08075,-0.0603 -0.0013,-0.50175 c -0.0013,-0.62768 -0.04257,-1.91875 -0.06395,-2.01325 -0.01456,-0.0638 -0.02377,-0.0693 -0.09349,-0.0558 -0.04257,0.008 -0.35683,0.15394 -0.698379,0.3238 -0.815066,0.40538 -1.145782,0.54839 -1.813367,0.78421 -1.29868,0.4587 -3.041336,0.84427 -4.496152,0.99477 -0.396575,0.041 -3.383401,0.0604 -4.04171,0.0261 -1.369511,-0.0712 -3.104749,-0.4041 -4.565537,-0.87596 -0.823747,-0.26607 -1.333615,-0.47662 -2.223241,-0.91806 -0.355219,-0.17626 -0.680663,-0.32708 -0.72322,-0.33514 -0.06936,-0.0132 -0.0793,-0.007 -0.09574,0.0561 -0.01053,0.0389 -0.02379,0.62586 -0.03052,1.30431 l -0.01193,1.23356 0.145148,0.0931 c 1.14295,0.73293 3.062335,1.44111 4.902134,1.80865 0.732748,0.1464 1.361992,0.23344 2.682781,0.37108 0.195312,0.0204 2.068009,0.0148 2.657936,-0.008 z m 30.591161,-2.52575 c -0.992264,-0.81846 -1.409317,-1.20825 -3.303792,-3.08788 -1.485544,-1.47387 -1.827066,-1.79743 -2.274291,-2.15466 -0.751698,-0.60039 -1.234974,-0.77613 -2.134921,-0.77628 -0.5514,0 -0.921876,0.0852 -1.458206,0.33556 -0.303419,0.14165 -0.660182,0.34262 -0.819833,0.46178 -0.07122,0.0531 -0.15552,0.0965 -0.187486,0.0965 -0.07226,0 -0.183976,-0.11524 -0.397132,-0.40986 -0.375606,-0.51913 -0.559576,-0.86206 -0.581577,-1.08422 -0.01192,-0.12332 -0.0068,-0.14388 0.08421,-0.28203 0.259932,-0.39757 0.861214,-1.06262 1.785737,-1.97505 0.80005,-0.7896 1.211457,-1.15543 2.108319,-1.87483 0.815681,-0.65422 1.625239,-1.32486 2.372281,-1.96516 0.954106,-0.81778 0.948068,-0.82312 -0.136636,-0.12066 -1.17951,0.7638 -2.161425,1.32996 -3.266522,1.88341 -0.805181,0.40325 -1.261888,0.59844 -1.840274,0.78649 -0.571244,0.18571 -0.630396,0.2188 -0.683853,0.38238 -0.09826,0.30054 -0.588953,1.3953 -0.623038,1.39 -0.02244,-0.005 -0.49883,-0.89677 -0.627713,-1.17689 -0.121191,-0.26329 -0.127162,-0.41376 -0.02946,-0.7332 0.133551,-0.43639 0.169344,-0.77083 0.127699,-1.19377 -0.04986,-0.50667 -0.176641,-0.93325 -0.425609,-1.43212 -0.16265,-0.32595 -0.223219,-0.41765 -0.816343,-1.23642 -0.282093,-0.38937 -0.790682,-1.09359 -1.130244,-1.56494 -1.661423,-2.30631 -2.037566,-2.82678 -2.106471,-2.91477 l -0.07465,-0.0953 0.7204,-0.72438 c 2.991607,-3.00822 7.701191,-7.71331 8.462038,-8.45396 2.423966,-2.35956 2.897232,-2.70584 4.673879,-3.41979 1.941907,-0.78038 3.357705,-1.16912 5.030222,-1.38117 2.504614,-0.31755 5.857063,-0.20036 8.178264,0.28583 1.510373,0.31637 3.251293,0.95086 3.850953,1.4035 0.278656,0.21036 0.481158,0.51786 0.728074,1.10555 0.945972,2.2516 1.351748,5.86292 1.053041,9.37126 -0.08373,0.98284 -0.219167,1.93902 -0.396564,2.79878 -0.288448,1.39821 -0.928386,3.16327 -1.724663,4.75697 -0.331703,0.66384 -0.485051,0.9341 -0.803499,1.41592 -0.373012,0.56439 -0.356896,0.54911 -7.047749,6.68226 -1.571173,1.44022 -3.197605,2.93163 -3.614301,3.31427 -0.416696,0.38263 -1.031508,0.94671 -1.366237,1.25351 -0.334723,0.30681 -0.65331,0.59954 -0.707939,0.65052 l -0.09931,0.0927 z m -4.541328,-7.30489 c 0.103824,-0.51444 0.667929,-1.50995 1.430457,-2.5243 1.369923,-1.82232 3.781103,-4.59801 6.152475,-7.08257 1.526057,-1.59891 2.386066,-2.53124 2.386066,-2.58671 0,-0.0546 -0.03483,-0.0411 -0.227681,0.0884 -0.64473,0.43309 -2.845979,2.58877 -4.491634,4.3986 -0.747783,0.82239 -2.772426,3.15139 -3.617047,4.16079 -0.219637,0.2625 -0.785001,0.96828 -2.11529,2.64066 -0.209798,0.26375 -0.386459,0.49289 -0.392617,0.50924 -0.03628,0.0965 0.233058,0.32016 0.59047,0.49039 0.21924,0.10436 0.246486,0.0953 0.284801,-0.0945 z m -4.545828,-5.7964 c 1.631131,-0.75502 2.777232,-1.34377 4.107567,-2.11009 2.835809,-1.63348 5.491369,-3.60808 7.270263,-5.40592 0.618245,-0.62483 1.005611,-1.10449 0.942738,-1.16736 -0.01059,-0.0106 -0.06615,0.006 -0.123447,0.0361 -0.11006,0.0583 -0.250743,0.16966 -1.201797,0.95065 -1.536893,1.26202 -3.488822,2.715 -5.174697,3.85192 -2.055734,1.38634 -3.801521,2.32705 -5.079902,2.7373 -0.331676,0.10649 -0.787219,0.22089 -1.104846,0.27761 -0.263129,0.0469 -0.357253,0.0863 -0.402395,0.16812 -0.03523,0.0639 -0.04363,0.51408 -0.01317,0.69352 0.02616,0.1527 0.103425,0.25267 0.180387,0.23336 0.03139,-0.008 0.300983,-0.12729 0.599118,-0.26522 z M 4.4970954,241.104 c 0.06368,-0.45137 0.5732503,-1.88133 1.0652708,-2.98914 0.2010381,-0.45265 0.761919,-1.57546 1.0485442,-2.09901 1.7171946,-3.13685 4.0138636,-6.20565 8.0896406,-10.80946 0.256857,-0.29008 0.46699,-0.53792 0.46699,-0.55072 0,-0.0131 -0.05435,-0.11086 -0.120677,-0.21788 -0.298627,-0.48146 -0.311242,-0.55297 -0.154771,-0.87613 0.175792,-0.3631 0.184785,-0.34419 -0.486236,-1.02416 l -0.408794,-0.41423 0.378144,-0.56698 c 0.562835,-0.8439 0.815335,-1.17577 1.329035,-1.74689 0.577126,-0.6416 1.12168,-1.12733 1.794009,-1.60017 0.454573,-0.3197 0.753693,-0.49166 1.456609,-0.83735 l 0.644965,-0.3172 0.384474,0.37754 c 0.211441,0.20764 0.382863,0.38312 0.380915,0.38994 -0.0012,0.007 -0.219268,0.1281 -0.482944,0.26959 -0.918048,0.49244 -1.428585,0.8267 -1.885731,1.23458 -0.28282,0.25233 -0.382418,0.38035 -0.360852,0.46372 0.0079,0.0311 0.09123,0.14006 0.184984,0.24202 l 0.170331,0.1854 0.320795,-0.29559 c 0.526355,-0.48501 0.926136,-0.75295 1.631412,-1.09345 0.766403,-0.37 1.078629,-0.43819 1.541332,-0.33667 0.386714,0.0849 0.462152,0.0513 1.0996,-0.48908 1.531267,-1.2981 2.386466,-1.97382 3.556809,-2.81036 2.489468,-1.7794 5.373034,-3.41892 8.240809,-4.68547 1.830031,-0.80824 5.386075,-2.09927 5.782283,-2.09927 0.04599,0 0.03831,0.0154 -0.05753,0.11444 -0.13538,0.13995 -0.899361,0.79787 -1.700532,1.46448 -3.732153,3.10538 -6.876606,5.93021 -9.329388,8.38119 -1.086477,1.08566 -1.373072,1.38884 -2.418316,2.55829 l -0.56506,0.6322 -0.55058,0.1318 c -0.650586,0.15574 -0.937903,0.24174 -1.35864,0.40658 -0.745991,0.29228 -1.420211,0.69718 -2.017445,1.21156 -0.33777,0.29091 -0.402539,0.41049 -0.317471,0.58617 0.05373,0.111 0.248526,0.31186 0.30249,0.31186 0.01631,0 0.132334,-0.10448 0.257889,-0.23232 0.259623,-0.26432 0.575325,-0.4857 1.005235,-0.70496 0.844219,-0.43055 1.651949,-0.68819 2.161115,-0.68931 0.195207,0 0.222146,0.006 0.356907,0.0838 0.94961,0.54875 2.383789,2.19193 2.708334,3.10305 0.151128,0.4243 0.06216,0.53177 -0.641567,0.77476 -0.873703,0.30167 -1.422373,0.69851 -1.984505,1.43536 l -0.194269,0.25467 0.07439,0.0927 c 0.09203,0.11458 0.367189,0.38183 0.450099,0.43693 0.09641,0.0641 0.171105,0.0532 0.187654,-0.0273 0.0588,-0.28601 0.131542,-0.39809 0.464384,-0.71457 0.479552,-0.45596 1.204153,-0.87535 1.623521,-0.93966 0.0846,-0.0132 0.119743,-0.005 0.213051,0.0553 0.541998,0.34372 3.220691,2.88471 3.475239,3.29656 0.02956,0.0479 0.04237,0.0973 0.03216,0.12532 -0.03438,0.0948 -0.234074,0.384 -0.386745,0.55998 -0.985342,1.13564 -1.637375,2.39912 -2.06803,4.00728 -0.156632,0.58497 -0.240855,0.85699 -0.265282,0.85699 -0.03025,0 -0.585074,-0.42354 -1.101636,-0.84082 -0.905876,-0.7318 -1.940535,-1.60545 -3.167186,-2.67426 -1.035921,-0.90263 -1.322756,-1.1306 -1.468474,-1.16718 -0.04568,-0.0119 -0.0854,0.005 -0.15509,0.0591 -0.137779,0.10953 -0.243289,0.13816 -0.380884,0.10356 -0.337985,-0.0852 -0.785211,-0.4346 -1.900459,-1.48511 -0.797358,-0.75111 -1.595465,-1.61199 -2.089197,-2.25356 -0.342356,-0.44487 -0.406668,-0.5106 -0.498643,-0.5096 -0.07889,9.6e-4 -0.345528,0.16931 -0.395612,0.24993 -0.04098,0.0657 -0.0026,0.1515 0.196356,0.43484 0.104362,0.14891 0.194402,0.28265 0.200061,0.29716 0.005,0.0147 -0.339051,0.3387 -0.766093,0.72038 -5.130113,4.58547 -10.0786669,9.09667 -12.4781119,11.37529 -0.6874764,0.65284 -1.0204509,0.93163 -1.1127616,0.93163 -0.013262,0 -0.015606,-0.0509 -0.00668,-0.11801 z m 4.2239263,-5.21893 c 0.9226156,-0.88755 8.8809083,-8.81695 8.8809083,-8.84869 0,-0.0235 -1.123374,-1.06638 -1.437376,-1.33451 -0.290032,-0.24764 -0.339279,-0.27616 -0.389726,-0.22572 -0.07823,0.0782 0.06076,0.33661 0.570276,1.06017 0.185738,0.26372 0.337718,0.48584 0.337718,0.49357 0,0.008 -0.869205,0.88741 -1.931572,1.95486 -2.224622,2.2353 -3.204706,3.25396 -4.353737,4.52514 -1.1832778,1.30908 -2.0848587,2.40966 -2.5835662,3.15385 -0.1265001,0.18888 -0.1288843,0.19522 -0.047638,0.12797 0.047068,-0.0389 0.4766711,-0.4469 0.9546286,-0.90668 z m 15.7539423,-6.26364 c 0.08447,-0.25273 0.161496,-0.50294 0.171046,-0.55598 l 0.01739,-0.0964 -0.146216,0.0175 c -0.116019,0.014 -0.647533,0.11695 -1.301316,0.25241 -0.06603,0.0137 -0.09745,-0.0168 -1.465207,-1.41851 -0.266633,-0.27324 -0.704274,-0.72038 -0.972574,-0.99363 l -0.487815,-0.49679 -0.0093,-0.68322 c -0.0093,-0.63271 -0.01326,-0.68963 -0.05994,-0.77005 -0.04693,-0.0805 -0.06045,-0.0874 -0.185967,-0.0938 -0.115635,-0.007 -0.230292,0.0252 -0.788136,0.21518 l -0.652775,0.22226 -0.365706,-0.37636 c -0.821366,-0.84536 -1.121539,-1.15563 -1.279813,-1.32288 l -0.16643,-0.17589 -0.0012,-0.65626 -0.0012,-0.65629 -0.317071,0.32292 c -0.373856,0.38075 -0.439729,0.49098 -0.437941,0.73279 0.0012,0.12531 0.01593,0.18933 0.06697,0.28567 0.210577,0.3976 0.404137,0.60317 2.16848,2.30291 l 0.150051,0.14456 0.505483,-0.0756 c 0.27801,-0.0414 0.510744,-0.0703 0.51717,-0.0638 0.0066,0.007 0.02188,0.11007 0.03438,0.23045 0.05518,0.53218 0.09627,0.58368 2.35458,2.94511 l 1.181914,1.23592 0.658279,-0.007 0.658267,-0.007 z m -3.237696,-6.98831 c 0.111391,-0.0728 0.336666,-0.23043 0.50061,-0.35038 0.767716,-0.56165 1.888806,-1.12288 2.608778,-1.30596 0.155824,-0.0396 0.314471,-0.0913 0.352548,-0.11483 0.14092,-0.0872 0.291516,-0.25378 0.523775,-0.57942 0.468387,-0.65675 0.966262,-1.24598 1.679162,-1.98734 1.947011,-2.02473 4.831606,-4.39747 7.852211,-6.45885 0.492294,-0.33594 1.017024,-0.70806 1.155077,-0.81909 0.207494,-0.16687 -0.322858,0.0669 -0.981206,0.4324 -0.781653,0.43403 -2.067271,1.21287 -2.866151,1.73634 -1.607015,1.05301 -3.490799,2.54188 -5.032555,3.97757 -0.86391,0.80446 -1.343613,1.29827 -2.172376,2.23628 -0.265413,0.30043 -0.49155,0.54352 -0.502467,0.5402 -0.01053,-0.003 -0.229703,-0.17645 -0.486167,-0.38474 -0.532703,-0.43267 -0.756413,-0.59044 -0.837198,-0.59044 -0.03102,0 -0.09441,0.0255 -0.140884,0.0567 -0.182918,0.12279 -0.123592,0.23712 0.50584,0.9737 l 0.36044,0.4218 -0.83553,0.4133 c -0.932473,0.46125 -1.470359,0.75946 -1.990627,1.10353 -0.337408,0.22314 -0.433163,0.31104 -0.411889,0.37806 0.04307,0.13592 0.370519,0.45355 0.46748,0.45355 0.02664,0 0.139725,-0.0596 0.251129,-0.13234 z"
       id="path6455"
       inkscape:connector-curvature="0" />
  </g>
</svg>
